<?xml version="1.0" standalone="no"?>
<!DOCTYPE svg PUBLIC "-//W3C//DTD SVG 20010904//EN"
 "http://www.w3.org/TR/2001/REC-SVG-20010904/DTD/svg10.dtd">
<svg version="1.0" xmlns="http://www.w3.org/2000/svg"
 width="96.000000pt" height="96.000000pt" viewBox="0 0 96.000000 96.000000"
 preserveAspectRatio="xMidYMid meet">
<metadata>
Created by potrace 1.14, written by Peter Selinger 2001-2017
</metadata>
<g transform="translate(0.000000,96.000000) scale(0.100000,-0.100000)"
fill="#000000" stroke="none">
<path d="M250 930 c-8 -5 -27 -10 -41 -10 -39 0 -77 -52 -59 -81 5 -8 4 -19
-2 -26 -6 -7 -8 -13 -5 -13 3 0 0 -20 -7 -44 -11 -35 -11 -48 0 -67 10 -20 10
-29 -4 -54 -10 -16 -20 -32 -23 -35 -24 -20 -29 -63 -29 -244 0 -107 4 -206
10 -220 11 -29 43 -53 82 -60 15 -2 33 -8 39 -12 8 -4 9 -3 5 4 -8 13 20 12
41 -1 6 -4 14 -3 18 3 3 5 11 10 16 10 6 0 7 -4 4 -10 -3 -5 -1 -10 4 -10 6 0
11 4 11 8 0 10 56 9 66 0 3 -4 12 -4 20 -1 8 3 21 0 29 -7 8 -7 15 -9 15 -5 0
4 6 3 13 -3 7 -5 21 -6 32 -1 29 11 37 11 30 -3 -4 -7 1 -4 10 7 16 20 70 28
92 12 6 -4 14 -3 18 3 5 8 10 8 20 0 9 -8 15 -8 20 0 3 5 11 10 16 10 6 0 7
-4 4 -10 -3 -5 -1 -10 4 -10 6 0 11 4 11 8 0 11 51 9 69 -3 10 -5 12 -4 7 3
-4 7 -1 12 9 12 9 0 13 -4 10 -10 -10 -16 1 -11 16 7 12 14 12 16 0 8 -10 -6
-12 -4 -7 4 5 7 15 10 23 7 8 -3 11 -2 8 3 -3 5 -1 12 5 16 5 3 10 17 10 31 0
13 6 24 13 24 8 0 7 4 -3 10 -9 6 -10 10 -3 10 8 0 9 9 3 30 -5 17 -5 30 0 30
5 0 5 13 0 30 -5 17 -5 30 -1 30 4 0 5 23 1 50 -4 33 -3 50 4 50 6 0 4 5 -4
10 -9 6 -10 10 -3 10 8 0 9 9 3 30 -5 17 -5 30 0 30 14 0 -11 84 -32 108 -12
12 -18 22 -13 22 4 0 0 9 -10 20 -10 11 -24 20 -32 20 -15 0 -17 16 -3 25 6 4
8 11 5 16 -4 5 -2 9 3 9 5 0 7 12 4 26 -4 21 -2 25 9 19 11 -6 12 -5 2 6 -7 7
-13 21 -13 32 0 11 5 16 13 12 6 -4 3 1 -7 9 -11 9 -15 16 -8 16 12 0 9 18
-11 57 -7 15 -22 25 -46 29 -20 3 -46 10 -58 16 -35 17 -71 2 -87 -36 -18 -44
-28 -49 -62 -31 -42 22 -87 19 -115 -8 l-25 -22 -22 26 c-12 15 -22 31 -22 37
0 15 -35 42 -56 42 -10 0 -26 -5 -34 -10z"/>
</g>
</svg>
